<?xml version="1.0" encoding="UTF-8"?>
<svg xmlns="http://www.w3.org/2000/svg" xmlns:xlink="http://www.w3.org/1999/xlink" width="75pt" height="74.999997pt" viewBox="0 0 75 74.999997" version="1.2">
<defs>
<clipPath id="clip1">
  <path d="M 10.085938 10.085938 L 64.835938 10.085938 L 64.835938 64.835938 L 10.085938 64.835938 Z M 10.085938 10.085938 "/>
</clipPath>
</defs>
<g id="surface1">
<path style=" stroke:none;fill-rule:nonzero;fill:rgb(33.329773%,0%,100%);fill-opacity:1;" d="M 37.460938 35.996094 C 36.652344 35.996094 35.996094 36.652344 35.996094 37.460938 C 35.996094 38.269531 36.652344 38.925781 37.460938 38.925781 C 38.269531 38.925781 38.925781 38.269531 38.925781 37.460938 C 38.925781 36.652344 38.269531 35.996094 37.460938 35.996094 "/>
<path style=" stroke:none;fill-rule:nonzero;fill:rgb(33.329773%,0%,100%);fill-opacity:1;" d="M 37.460938 40.882812 C 35.574219 40.882812 34.039062 39.347656 34.039062 37.460938 C 34.039062 35.574219 35.574219 34.039062 37.460938 34.039062 C 39.347656 34.039062 40.882812 35.574219 40.882812 37.460938 C 40.882812 39.347656 39.347656 40.882812 37.460938 40.882812 Z M 27.398438 48.90625 L 26.015625 47.523438 L 32.859375 40.679688 L 34.242188 42.0625 Z M 36.484375 17.90625 L 38.4375 17.90625 L 38.4375 31.59375 L 36.484375 31.59375 Z M 37.460938 15.953125 C 25.597656 15.953125 15.953125 25.597656 15.953125 37.460938 C 15.953125 49.324219 25.597656 58.96875 37.460938 58.96875 C 49.324219 58.96875 58.96875 49.324219 58.96875 37.460938 C 58.96875 25.597656 49.324219 15.953125 37.460938 15.953125 "/>
<g clip-path="url(#clip1)" clip-rule="nonzero">
<path style=" stroke:none;fill-rule:nonzero;fill:rgb(33.329773%,0%,100%);fill-opacity:1;" d="M 37.460938 60.925781 C 24.523438 60.925781 13.996094 50.398438 13.996094 37.460938 C 13.996094 24.523438 24.523438 13.996094 37.460938 13.996094 C 50.398438 13.996094 60.925781 24.523438 60.925781 37.460938 C 60.925781 50.398438 50.398438 60.925781 37.460938 60.925781 Z M 37.460938 10.085938 C 22.363281 10.085938 10.085938 22.363281 10.085938 37.460938 C 10.085938 52.558594 22.363281 64.835938 37.460938 64.835938 C 52.558594 64.835938 64.835938 52.558594 64.835938 37.460938 C 64.835938 22.363281 52.558594 10.085938 37.460938 10.085938 "/>
</g>
</g>
</svg>
