<?xml version="1.0" encoding="UTF-8"?>
<svg xmlns="http://www.w3.org/2000/svg" xmlns:xlink="http://www.w3.org/1999/xlink" width="75pt" height="74.999997pt" viewBox="0 0 75 74.999997" version="1.2">
<defs>
<clipPath id="clip1">
  <path d="M 10.085938 16 L 65 16 L 65 64.835938 L 10.085938 64.835938 Z M 10.085938 16 "/>
</clipPath>
<clipPath id="clip2">
  <path d="M 10.085938 15 L 65.585938 15 L 65.585938 64.835938 L 10.085938 64.835938 Z M 10.085938 15 "/>
</clipPath>
<clipPath id="clip3">
  <path d="M 10.085938 16 L 65 16 L 65 31 L 10.085938 31 Z M 10.085938 16 "/>
</clipPath>
<clipPath id="clip4">
  <path d="M 10.085938 15 L 65.585938 15 L 65.585938 31 L 10.085938 31 Z M 10.085938 15 "/>
</clipPath>
<clipPath id="clip5">
  <path d="M 18 10.085938 L 23 10.085938 L 23 22 L 18 22 Z M 18 10.085938 "/>
</clipPath>
<clipPath id="clip6">
  <path d="M 17 10.085938 L 24 10.085938 L 24 23 L 17 23 Z M 17 10.085938 "/>
</clipPath>
<clipPath id="clip7">
  <path d="M 52 10.085938 L 58 10.085938 L 58 22 L 52 22 Z M 52 10.085938 "/>
</clipPath>
<clipPath id="clip8">
  <path d="M 52 10.085938 L 59 10.085938 L 59 23 L 52 23 Z M 52 10.085938 "/>
</clipPath>
</defs>
<g id="surface1">
<g clip-path="url(#clip1)" clip-rule="nonzero">
<path style=" stroke:none;fill-rule:nonzero;fill:rgb(33.329773%,0%,100%);fill-opacity:1;" d="M 64.71875 57.714844 C 64.71875 61.195312 61.894531 64.019531 58.410156 64.019531 L 17.277344 64.019531 C 13.792969 64.019531 10.96875 61.195312 10.96875 57.714844 L 10.96875 22.453125 C 10.96875 18.972656 13.792969 16.148438 17.277344 16.148438 L 58.410156 16.148438 C 61.894531 16.148438 64.71875 18.972656 64.71875 22.453125 L 64.71875 57.714844 "/>
</g>
<g clip-path="url(#clip2)" clip-rule="nonzero">
<path style=" stroke:none;fill-rule:nonzero;fill:rgb(100%,100%,100%);fill-opacity:1;" d="M 64.71875 57.714844 L 63.902344 57.714844 C 63.902344 59.230469 63.289062 60.597656 62.292969 61.59375 C 61.296875 62.589844 59.929688 63.199219 58.410156 63.199219 L 17.277344 63.199219 C 15.757812 63.199219 14.390625 62.589844 13.394531 61.59375 C 12.398438 60.597656 11.785156 59.230469 11.785156 57.714844 L 11.785156 22.453125 C 11.785156 20.9375 12.398438 19.570312 13.394531 18.574219 C 14.390625 17.578125 15.757812 16.96875 17.277344 16.964844 L 58.410156 16.964844 C 59.929688 16.96875 61.296875 17.578125 62.292969 18.574219 C 63.289062 19.570312 63.902344 20.9375 63.902344 22.453125 L 63.902344 57.714844 L 65.539062 57.714844 L 65.539062 22.453125 C 65.539062 20.488281 64.738281 18.703125 63.449219 17.417969 C 62.160156 16.132812 60.375 15.332031 58.410156 15.332031 L 17.277344 15.332031 C 15.3125 15.332031 13.523438 16.132812 12.238281 17.417969 C 10.949219 18.703125 10.148438 20.488281 10.148438 22.453125 L 10.148438 57.714844 C 10.148438 59.679688 10.949219 61.464844 12.238281 62.75 C 13.523438 64.035156 15.3125 64.835938 17.277344 64.835938 L 58.410156 64.835938 C 60.375 64.835938 62.160156 64.035156 63.449219 62.75 C 64.738281 61.464844 65.539062 59.679688 65.539062 57.714844 L 64.71875 57.714844 "/>
</g>
<path style=" stroke:none;fill-rule:nonzero;fill:rgb(100%,100%,100%);fill-opacity:1;" d="M 22.375 41.109375 C 22.375 41.589844 21.980469 41.980469 21.496094 41.980469 L 15.785156 41.980469 C 15.300781 41.980469 14.90625 41.589844 14.90625 41.109375 L 14.90625 36.210938 C 14.90625 35.726562 15.300781 35.332031 15.785156 35.332031 L 21.496094 35.332031 C 21.980469 35.332031 22.375 35.726562 22.375 36.210938 L 22.375 41.109375 "/>
<path style=" stroke:none;fill-rule:nonzero;fill:rgb(100%,100%,100%);fill-opacity:1;" d="M 31.972656 41.109375 C 31.972656 41.589844 31.582031 41.980469 31.097656 41.980469 L 25.386719 41.980469 C 24.902344 41.980469 24.507812 41.589844 24.507812 41.109375 L 24.507812 36.210938 C 24.507812 35.726562 24.902344 35.332031 25.386719 35.332031 L 31.097656 35.332031 C 31.582031 35.332031 31.972656 35.726562 31.972656 36.210938 L 31.972656 41.109375 "/>
<path style=" stroke:none;fill-rule:nonzero;fill:rgb(100%,100%,100%);fill-opacity:1;" d="M 41.578125 41.109375 C 41.578125 41.589844 41.183594 41.980469 40.699219 41.980469 L 34.988281 41.980469 C 34.503906 41.980469 34.109375 41.589844 34.109375 41.109375 L 34.109375 36.210938 C 34.109375 35.726562 34.503906 35.332031 34.988281 35.332031 L 40.699219 35.332031 C 41.183594 35.332031 41.578125 35.726562 41.578125 36.210938 L 41.578125 41.109375 "/>
<path style=" stroke:none;fill-rule:nonzero;fill:rgb(100%,100%,100%);fill-opacity:1;" d="M 51.179688 41.109375 C 51.179688 41.589844 50.785156 41.980469 50.300781 41.980469 L 44.589844 41.980469 C 44.105469 41.980469 43.710938 41.589844 43.710938 41.109375 L 43.710938 36.210938 C 43.710938 35.726562 44.105469 35.332031 44.589844 35.332031 L 50.300781 35.332031 C 50.785156 35.332031 51.179688 35.726562 51.179688 36.210938 L 51.179688 41.109375 "/>
<path style=" stroke:none;fill-rule:nonzero;fill:rgb(100%,100%,100%);fill-opacity:1;" d="M 60.78125 41.109375 C 60.78125 41.589844 60.390625 41.980469 59.902344 41.980469 L 54.191406 41.980469 C 53.707031 41.980469 53.316406 41.589844 53.316406 41.109375 L 53.316406 36.210938 C 53.316406 35.726562 53.707031 35.332031 54.191406 35.332031 L 59.902344 35.332031 C 60.390625 35.332031 60.78125 35.726562 60.78125 36.210938 L 60.78125 41.109375 "/>
<path style=" stroke:none;fill-rule:nonzero;fill:rgb(100%,100%,100%);fill-opacity:1;" d="M 22.375 49.664062 C 22.375 50.148438 21.980469 50.539062 21.496094 50.539062 L 15.785156 50.539062 C 15.300781 50.539062 14.90625 50.148438 14.90625 49.664062 L 14.90625 44.765625 C 14.90625 44.28125 15.300781 43.890625 15.785156 43.890625 L 21.496094 43.890625 C 21.980469 43.890625 22.375 44.28125 22.375 44.765625 L 22.375 49.664062 "/>
<path style=" stroke:none;fill-rule:nonzero;fill:rgb(100%,100%,100%);fill-opacity:1;" d="M 31.972656 49.664062 C 31.972656 50.148438 31.582031 50.539062 31.097656 50.539062 L 25.386719 50.539062 C 24.902344 50.539062 24.507812 50.148438 24.507812 49.664062 L 24.507812 44.765625 C 24.507812 44.28125 24.902344 43.890625 25.386719 43.890625 L 31.097656 43.890625 C 31.582031 43.890625 31.972656 44.28125 31.972656 44.765625 L 31.972656 49.664062 "/>
<path style=" stroke:none;fill-rule:nonzero;fill:rgb(100%,100%,100%);fill-opacity:1;" d="M 41.578125 49.664062 C 41.578125 50.148438 41.183594 50.539062 40.699219 50.539062 L 34.988281 50.539062 C 34.503906 50.539062 34.109375 50.148438 34.109375 49.664062 L 34.109375 44.765625 C 34.109375 44.28125 34.503906 43.890625 34.988281 43.890625 L 40.699219 43.890625 C 41.183594 43.890625 41.578125 44.28125 41.578125 44.765625 L 41.578125 49.664062 "/>
<path style=" stroke:none;fill-rule:nonzero;fill:rgb(100%,100%,100%);fill-opacity:1;" d="M 51.179688 49.664062 C 51.179688 50.148438 50.785156 50.539062 50.300781 50.539062 L 44.589844 50.539062 C 44.105469 50.539062 43.710938 50.148438 43.710938 49.664062 L 43.710938 44.765625 C 43.710938 44.28125 44.105469 43.890625 44.589844 43.890625 L 50.300781 43.890625 C 50.785156 43.890625 51.179688 44.28125 51.179688 44.765625 L 51.179688 49.664062 "/>
<path style=" stroke:none;fill-rule:nonzero;fill:rgb(100%,100%,100%);fill-opacity:1;" d="M 60.78125 49.664062 C 60.78125 50.148438 60.390625 50.539062 59.902344 50.539062 L 54.191406 50.539062 C 53.707031 50.539062 53.316406 50.148438 53.316406 49.664062 L 53.316406 44.765625 C 53.316406 44.28125 53.707031 43.890625 54.191406 43.890625 L 59.902344 43.890625 C 60.390625 43.890625 60.78125 44.28125 60.78125 44.765625 L 60.78125 49.664062 "/>
<path style=" stroke:none;fill-rule:nonzero;fill:rgb(100%,100%,100%);fill-opacity:1;" d="M 22.375 58.21875 C 22.375 58.707031 21.980469 59.097656 21.496094 59.097656 L 15.785156 59.097656 C 15.300781 59.097656 14.90625 58.707031 14.90625 58.21875 L 14.90625 53.324219 C 14.90625 52.839844 15.300781 52.449219 15.785156 52.449219 L 21.496094 52.449219 C 21.980469 52.449219 22.375 52.839844 22.375 53.324219 L 22.375 58.21875 "/>
<path style=" stroke:none;fill-rule:nonzero;fill:rgb(100%,100%,100%);fill-opacity:1;" d="M 31.972656 58.21875 C 31.972656 58.707031 31.582031 59.097656 31.097656 59.097656 L 25.386719 59.097656 C 24.902344 59.097656 24.507812 58.707031 24.507812 58.21875 L 24.507812 53.324219 C 24.507812 52.839844 24.902344 52.449219 25.386719 52.449219 L 31.097656 52.449219 C 31.582031 52.449219 31.972656 52.839844 31.972656 53.324219 L 31.972656 58.21875 "/>
<path style=" stroke:none;fill-rule:nonzero;fill:rgb(100%,100%,100%);fill-opacity:1;" d="M 41.578125 58.21875 C 41.578125 58.707031 41.183594 59.097656 40.699219 59.097656 L 34.988281 59.097656 C 34.503906 59.097656 34.109375 58.707031 34.109375 58.21875 L 34.109375 53.324219 C 34.109375 52.839844 34.503906 52.449219 34.988281 52.449219 L 40.699219 52.449219 C 41.183594 52.449219 41.578125 52.839844 41.578125 53.324219 L 41.578125 58.21875 "/>
<path style=" stroke:none;fill-rule:nonzero;fill:rgb(100%,100%,100%);fill-opacity:1;" d="M 51.179688 58.21875 C 51.179688 58.707031 50.785156 59.097656 50.300781 59.097656 L 44.589844 59.097656 C 44.105469 59.097656 43.710938 58.707031 43.710938 58.21875 L 43.710938 53.324219 C 43.710938 52.839844 44.105469 52.449219 44.589844 52.449219 L 50.300781 52.449219 C 50.785156 52.449219 51.179688 52.839844 51.179688 53.324219 L 51.179688 58.21875 "/>
<path style=" stroke:none;fill-rule:nonzero;fill:rgb(100%,100%,100%);fill-opacity:1;" d="M 60.78125 58.21875 C 60.78125 58.707031 60.390625 59.097656 59.902344 59.097656 L 54.191406 59.097656 C 53.707031 59.097656 53.316406 58.707031 53.316406 58.21875 L 53.316406 53.324219 C 53.316406 52.839844 53.707031 52.449219 54.191406 52.449219 L 59.902344 52.449219 C 60.390625 52.449219 60.78125 52.839844 60.78125 53.324219 L 60.78125 58.21875 "/>
<g clip-path="url(#clip3)" clip-rule="nonzero">
<path style=" stroke:none;fill-rule:nonzero;fill:rgb(33.329773%,0%,100%);fill-opacity:1;" d="M 64.71875 30.160156 L 64.71875 22.453125 C 64.71875 18.972656 61.894531 16.148438 58.410156 16.148438 L 17.277344 16.148438 C 13.792969 16.148438 10.96875 18.972656 10.96875 22.453125 L 10.96875 30.160156 L 64.71875 30.160156 "/>
</g>
<g clip-path="url(#clip4)" clip-rule="nonzero">
<path style=" stroke:none;fill-rule:nonzero;fill:rgb(100%,100%,100%);fill-opacity:1;" d="M 64.71875 30.160156 L 65.539062 30.160156 L 65.539062 22.453125 C 65.539062 20.488281 64.738281 18.703125 63.449219 17.417969 C 62.160156 16.132812 60.375 15.332031 58.410156 15.332031 L 17.277344 15.332031 C 15.3125 15.332031 13.523438 16.132812 12.238281 17.417969 C 10.949219 18.703125 10.148438 20.488281 10.148438 22.453125 L 10.148438 30.976562 L 65.539062 30.976562 L 65.539062 30.160156 L 64.71875 30.160156 L 64.71875 29.34375 L 11.785156 29.34375 L 11.785156 22.453125 C 11.785156 20.9375 12.398438 19.570312 13.394531 18.574219 C 14.390625 17.578125 15.757812 16.96875 17.277344 16.964844 L 58.410156 16.964844 C 59.929688 16.96875 61.296875 17.578125 62.292969 18.574219 C 63.289062 19.570312 63.902344 20.9375 63.902344 22.453125 L 63.902344 30.160156 L 64.71875 30.160156 L 64.71875 29.34375 L 64.71875 30.160156 "/>
</g>
<g clip-path="url(#clip5)" clip-rule="nonzero">
<path style=" stroke:none;fill-rule:nonzero;fill:rgb(33.329773%,0%,100%);fill-opacity:1;" d="M 22.792969 19.011719 C 22.792969 20.328125 21.726562 21.398438 20.40625 21.398438 C 19.089844 21.398438 18.023438 20.328125 18.023438 19.011719 L 18.023438 13.285156 C 18.023438 11.972656 19.089844 10.902344 20.40625 10.902344 C 21.726562 10.902344 22.792969 11.972656 22.792969 13.285156 L 22.792969 19.011719 "/>
</g>
<g clip-path="url(#clip6)" clip-rule="nonzero">
<path style=" stroke:none;fill-rule:nonzero;fill:rgb(100%,100%,100%);fill-opacity:1;" d="M 22.792969 19.011719 L 21.976562 19.011719 C 21.976562 19.449219 21.800781 19.835938 21.515625 20.121094 C 21.230469 20.40625 20.84375 20.578125 20.40625 20.582031 C 19.972656 20.578125 19.585938 20.40625 19.300781 20.121094 C 19.015625 19.835938 18.839844 19.449219 18.839844 19.011719 L 18.839844 13.285156 C 18.839844 12.851562 19.015625 12.464844 19.300781 12.179688 C 19.585938 11.894531 19.972656 11.71875 20.40625 11.71875 C 20.84375 11.71875 21.230469 11.894531 21.515625 12.179688 C 21.800781 12.464844 21.976562 12.851562 21.976562 13.285156 L 21.976562 19.011719 L 23.609375 19.011719 L 23.609375 13.285156 C 23.613281 12.40625 23.25 11.601562 22.671875 11.023438 C 22.097656 10.445312 21.289062 10.085938 20.40625 10.085938 C 19.527344 10.085938 18.71875 10.445312 18.144531 11.023438 C 17.566406 11.601562 17.207031 12.40625 17.207031 13.285156 L 17.207031 19.011719 C 17.207031 19.894531 17.566406 20.699219 18.144531 21.277344 C 18.71875 21.855469 19.527344 22.214844 20.40625 22.214844 C 21.289062 22.214844 22.097656 21.855469 22.671875 21.277344 C 23.25 20.699219 23.613281 19.894531 23.609375 19.011719 L 22.792969 19.011719 "/>
</g>
<g clip-path="url(#clip7)" clip-rule="nonzero">
<path style=" stroke:none;fill-rule:nonzero;fill:rgb(33.329773%,0%,100%);fill-opacity:1;" d="M 57.664062 19.011719 C 57.664062 20.328125 56.597656 21.398438 55.28125 21.398438 C 53.960938 21.398438 52.894531 20.328125 52.894531 19.011719 L 52.894531 13.285156 C 52.894531 11.972656 53.960938 10.902344 55.28125 10.902344 C 56.597656 10.902344 57.664062 11.972656 57.664062 13.285156 L 57.664062 19.011719 "/>
</g>
<g clip-path="url(#clip8)" clip-rule="nonzero">
<path style=" stroke:none;fill-rule:nonzero;fill:rgb(100%,100%,100%);fill-opacity:1;" d="M 57.664062 19.011719 L 56.847656 19.011719 C 56.847656 19.449219 56.671875 19.835938 56.386719 20.121094 C 56.101562 20.40625 55.714844 20.578125 55.28125 20.582031 C 54.84375 20.578125 54.457031 20.40625 54.171875 20.121094 C 53.886719 19.835938 53.714844 19.449219 53.714844 19.011719 L 53.714844 13.285156 C 53.714844 12.851562 53.886719 12.464844 54.171875 12.179688 C 54.457031 11.894531 54.84375 11.71875 55.28125 11.71875 C 55.714844 11.71875 56.101562 11.894531 56.386719 12.179688 C 56.671875 12.464844 56.847656 12.851562 56.847656 13.285156 L 56.847656 19.011719 L 58.480469 19.011719 L 58.480469 13.285156 C 58.480469 12.40625 58.121094 11.601562 57.542969 11.023438 C 56.96875 10.445312 56.160156 10.085938 55.28125 10.085938 C 54.398438 10.085938 53.589844 10.445312 53.015625 11.023438 C 52.4375 11.601562 52.078125 12.40625 52.078125 13.285156 L 52.078125 19.011719 C 52.078125 19.894531 52.4375 20.699219 53.015625 21.277344 C 53.589844 21.855469 54.398438 22.214844 55.28125 22.214844 C 56.160156 22.214844 56.96875 21.855469 57.542969 21.277344 C 58.121094 20.699219 58.480469 19.894531 58.480469 19.011719 L 57.664062 19.011719 "/>
</g>
</g>
</svg>
