<?xml version="1.0" encoding="UTF-8"?>
<svg xmlns="http://www.w3.org/2000/svg" xmlns:xlink="http://www.w3.org/1999/xlink" width="75pt" height="74.999997pt" viewBox="0 0 75 74.999997" version="1.2">
<defs>
<clipPath id="clip1">
  <path d="M 14.773438 9 L 60.523438 9 L 60.523438 67.5 L 14.773438 67.5 Z M 14.773438 9 "/>
</clipPath>
</defs>
<g id="surface1">
<path style=" stroke:none;fill-rule:nonzero;fill:rgb(33.329773%,0%,100%);fill-opacity:1;" d="M 50.914062 27.601562 L 50.914062 33.703125 L 23.953125 33.703125 L 23.953125 27.140625 C 23.953125 27.140625 23.949219 21.6875 29.523438 18.0625 C 35.929688 13.910156 42.445312 15.617188 46.234375 18.671875 C 51.492188 22.90625 50.914062 27.601562 50.914062 27.601562 Z M 38.777344 51.691406 L 38.777344 57.609375 L 36.066406 57.609375 L 36.066406 51.785156 C 34.191406 51.257812 32.808594 49.539062 32.808594 47.5 C 32.808594 45.054688 34.808594 43.058594 37.285156 43.058594 C 39.757812 43.058594 41.75 45.054688 41.75 47.5 C 41.75 49.445312 40.507812 51.085938 38.777344 51.691406 Z M 55.828125 34.21875 L 55.828125 25.589844 C 55.828125 25.589844 56.625 19.398438 49.394531 13.800781 C 44.171875 9.753906 35.214844 7.503906 26.390625 13.007812 C 18.699219 17.796875 18.714844 25.007812 18.714844 25.007812 L 18.714844 34.523438 C 16.71875 35.460938 15.382812 37.113281 15.382812 39.019531 L 15.382812 61.644531 C 15.382812 64.597656 18.570312 66.976562 22.503906 66.976562 L 52.789062 66.976562 C 56.71875 66.976562 59.914062 64.597656 59.914062 61.644531 L 59.914062 39.019531 C 59.914062 36.90625 58.242188 35.066406 55.828125 34.21875 "/>
<g clip-path="url(#clip1)" clip-rule="nonzero">
<path style=" stroke:none;fill-rule:nonzero;fill:rgb(100%,100%,100%);fill-opacity:1;" d="M 50.914062 27.601562 L 50.375 27.601562 L 50.375 33.167969 L 24.492188 33.167969 L 24.492188 27.140625 L 24.339844 27.140625 L 24.492188 27.140625 L 24.339844 27.140625 L 24.492188 27.140625 C 24.492188 27.132812 24.5 25.824219 25.171875 24.097656 C 25.84375 22.375 27.164062 20.238281 29.816406 18.511719 C 32.445312 16.808594 35.066406 16.132812 37.503906 16.132812 C 40.816406 16.128906 43.800781 17.398438 45.898438 19.089844 C 47.980469 20.769531 49.09375 22.5 49.699219 23.957031 C 50.304688 25.414062 50.390625 26.601562 50.390625 27.171875 C 50.390625 27.300781 50.386719 27.394531 50.382812 27.457031 C 50.382812 27.488281 50.378906 27.511719 50.378906 27.523438 L 50.378906 27.539062 L 50.386719 27.539062 L 50.378906 27.539062 L 50.386719 27.539062 L 50.378906 27.539062 C 50.375 27.5625 50.375 27.582031 50.375 27.601562 L 50.914062 27.601562 L 51.449219 27.667969 C 51.449219 27.648438 51.46875 27.472656 51.46875 27.171875 C 51.46875 26.492188 51.363281 25.164062 50.699219 23.550781 C 50.03125 21.9375 48.796875 20.046875 46.574219 18.257812 C 44.296875 16.421875 41.097656 15.0625 37.503906 15.0625 C 34.863281 15.058594 32.023438 15.800781 29.226562 17.617188 C 26.339844 19.492188 24.875 21.863281 24.148438 23.757812 C 23.421875 25.65625 23.417969 27.082031 23.414062 27.140625 L 23.414062 33.703125 C 23.414062 33.84375 23.472656 33.980469 23.574219 34.082031 C 23.671875 34.179688 23.8125 34.238281 23.953125 34.238281 L 50.914062 34.238281 C 51.054688 34.238281 51.191406 34.179688 51.292969 34.078125 C 51.394531 33.980469 51.453125 33.84375 51.453125 33.703125 L 51.453125 27.601562 L 50.914062 27.601562 L 51.449219 27.667969 Z M 38.777344 51.691406 L 38.238281 51.691406 L 38.238281 57.074219 L 36.605469 57.074219 L 36.605469 51.785156 C 36.605469 51.546875 36.445312 51.335938 36.214844 51.273438 C 35.390625 51.039062 34.671875 50.542969 34.160156 49.882812 C 33.648438 49.222656 33.347656 48.398438 33.34375 47.5 C 33.34375 46.425781 33.785156 45.449219 34.5 44.738281 C 35.214844 44.03125 36.195312 43.59375 37.285156 43.59375 C 38.375 43.59375 39.351562 44.03125 40.0625 44.738281 C 40.773438 45.449219 41.210938 46.425781 41.210938 47.5 C 41.210938 48.359375 40.9375 49.144531 40.476562 49.785156 C 40.011719 50.429688 39.359375 50.921875 38.597656 51.1875 C 38.382812 51.261719 38.238281 51.464844 38.238281 51.691406 L 38.777344 51.691406 L 38.957031 52.199219 C 39.929688 51.855469 40.761719 51.226562 41.351562 50.410156 C 41.941406 49.59375 42.289062 48.585938 42.289062 47.5 C 42.289062 46.132812 41.730469 44.886719 40.828125 43.984375 C 39.925781 43.082031 38.667969 42.523438 37.285156 42.523438 C 35.902344 42.523438 34.640625 43.082031 33.738281 43.984375 C 32.828125 44.882812 32.269531 46.132812 32.269531 47.5 C 32.269531 48.640625 32.65625 49.699219 33.304688 50.535156 C 33.957031 51.375 34.867188 52.003906 35.921875 52.300781 L 36.066406 51.785156 L 35.527344 51.785156 L 35.527344 57.609375 C 35.527344 57.75 35.585938 57.890625 35.6875 57.988281 C 35.789062 58.089844 35.925781 58.144531 36.066406 58.144531 L 38.777344 58.144531 C 38.921875 58.144531 39.058594 58.089844 39.160156 57.988281 C 39.257812 57.890625 39.316406 57.75 39.316406 57.609375 L 39.316406 51.691406 L 38.777344 51.691406 L 38.957031 52.199219 Z M 55.828125 34.21875 L 56.367188 34.21875 L 56.367188 25.589844 L 55.828125 25.589844 L 56.363281 25.660156 C 56.367188 25.636719 56.394531 25.414062 56.394531 25.027344 C 56.394531 24.144531 56.25 22.410156 55.34375 20.304688 C 54.433594 18.199219 52.757812 15.726562 49.726562 13.382812 C 46.628906 10.980469 42.273438 9.203125 37.394531 9.199219 C 33.800781 9.199219 29.929688 10.171875 26.105469 12.554688 C 22.167969 15.003906 20.171875 18.101562 19.175781 20.582031 C 18.183594 23.066406 18.175781 24.9375 18.175781 25.007812 L 18.175781 34.523438 L 18.714844 34.523438 L 18.484375 34.039062 C 17.417969 34.539062 16.515625 35.238281 15.871094 36.085938 C 15.226562 36.933594 14.84375 37.941406 14.84375 39.019531 L 14.84375 61.644531 C 14.84375 62.476562 15.070312 63.273438 15.472656 63.984375 C 16.074219 65.050781 17.0625 65.929688 18.277344 66.546875 C 19.496094 67.160156 20.945312 67.511719 22.503906 67.511719 L 52.789062 67.511719 C 54.863281 67.511719 56.753906 66.886719 58.148438 65.84375 C 58.847656 65.324219 59.421875 64.695312 59.824219 63.984375 C 60.226562 63.273438 60.453125 62.476562 60.453125 61.644531 L 60.453125 39.019531 C 60.457031 37.820312 59.976562 36.703125 59.1875 35.792969 C 58.394531 34.882812 57.292969 34.164062 56.007812 33.710938 L 55.828125 34.21875 L 56.367188 34.21875 L 55.828125 34.21875 L 55.648438 34.722656 C 56.777344 35.117188 57.722656 35.742188 58.371094 36.492188 C 59.019531 37.242188 59.375 38.105469 59.375 39.019531 L 59.375 61.644531 C 59.375 62.285156 59.203125 62.894531 58.882812 63.460938 C 58.40625 64.308594 57.585938 65.058594 56.527344 65.589844 C 55.46875 66.125 54.179688 66.441406 52.789062 66.441406 L 22.503906 66.441406 C 20.644531 66.445312 18.976562 65.878906 17.792969 64.992188 C 17.203125 64.546875 16.734375 64.027344 16.414062 63.460938 C 16.09375 62.894531 15.925781 62.285156 15.921875 61.644531 L 15.921875 39.019531 C 15.925781 38.195312 16.210938 37.421875 16.730469 36.730469 C 17.253906 36.042969 18.015625 35.445312 18.945312 35.007812 C 19.132812 34.917969 19.253906 34.730469 19.253906 34.523438 L 19.253906 24.992188 C 19.253906 24.804688 19.3125 23.03125 20.269531 20.761719 C 21.226562 18.484375 23.066406 15.714844 26.675781 13.460938 C 30.335938 11.179688 33.996094 10.273438 37.394531 10.269531 C 42.003906 10.269531 46.144531 11.960938 49.0625 14.226562 C 51.957031 16.464844 53.511719 18.777344 54.351562 20.726562 C 55.191406 22.671875 55.316406 24.257812 55.316406 25.027344 C 55.316406 25.195312 55.308594 25.324219 55.304688 25.410156 C 55.300781 25.453125 55.300781 25.480469 55.296875 25.5 L 55.296875 25.523438 L 55.496094 25.550781 L 55.296875 25.523438 L 55.496094 25.550781 L 55.296875 25.523438 C 55.292969 25.546875 55.289062 25.570312 55.289062 25.589844 L 55.289062 34.21875 C 55.289062 34.445312 55.433594 34.648438 55.648438 34.722656 L 55.828125 34.21875 "/>
</g>
</g>
</svg>
