<?xml version="1.0" encoding="UTF-8"?>
<svg xmlns="http://www.w3.org/2000/svg" xmlns:xlink="http://www.w3.org/1999/xlink" width="75pt" height="74.999997pt" viewBox="0 0 75 74.999997" version="1.2">
<defs>
<clipPath id="clip1">
  <path d="M 22.757812 24.089844 L 52.007812 24.089844 L 52.007812 48.839844 L 22.757812 48.839844 Z M 22.757812 24.089844 "/>
</clipPath>
<clipPath id="clip2">
  <path d="M 9.832031 9.019531 L 65.332031 9.019531 L 65.332031 64.519531 L 9.832031 64.519531 Z M 9.832031 9.019531 "/>
</clipPath>
<clipPath id="clip3">
  <path d="M 26.144531 21.328125 L 48.644531 21.328125 L 48.644531 51.328125 L 26.144531 51.328125 Z M 26.144531 21.328125 "/>
</clipPath>
</defs>
<g id="surface1">
<g clip-path="url(#clip1)" clip-rule="nonzero">
<path style=" stroke:none;fill-rule:nonzero;fill:rgb(100%,100%,100%);fill-opacity:1;" d="M 22.757812 24.089844 L 52.007812 24.089844 L 52.007812 48.839844 L 22.757812 48.839844 Z M 22.757812 24.089844 "/>
</g>
<g clip-path="url(#clip2)" clip-rule="nonzero">
<path style=" stroke:none;fill-rule:nonzero;fill:rgb(33.329773%,0%,100%);fill-opacity:1;" d="M 37.582031 9.019531 C 22.25 9.019531 9.832031 21.4375 9.832031 36.769531 C 9.832031 52.101562 22.25 64.519531 37.582031 64.519531 C 52.914062 64.519531 65.332031 52.101562 65.332031 36.769531 C 65.332031 21.4375 52.914062 9.019531 37.582031 9.019531 Z M 32.03125 49.257812 L 32.03125 24.28125 L 48.679688 36.769531 Z M 32.03125 49.257812 "/>
</g>
<g clip-path="url(#clip3)" clip-rule="nonzero">
<path style=" stroke:none;fill-rule:nonzero;fill:rgb(100%,100%,100%);fill-opacity:1;" d="M 28.15625 51.308594 C 28.8125 51.308594 29.558594 51.027344 30.332031 50.488281 L 46.984375 39.101562 C 48.0625 38.375 48.644531 37.371094 48.644531 36.316406 C 48.644531 35.265625 48.0625 34.257812 46.984375 33.535156 L 30.355469 22.144531 C 29.582031 21.609375 28.8125 21.351562 28.15625 21.351562 C 26.917969 21.351562 26.144531 22.355469 26.144531 24.015625 L 26.144531 48.640625 C 26.144531 50.300781 26.917969 51.308594 28.15625 51.308594 Z M 28.15625 51.308594 "/>
</g>
</g>
</svg>
